<?xml version="1.0" encoding="utf-8"?>
<!-- Generator: Adobe Illustrator 27.0.0, SVG Export Plug-In . SVG Version: 6.00 Build 0)  -->
<svg version="1.1" id="Capa_1" xmlns="http://www.w3.org/2000/svg" xmlns:xlink="http://www.w3.org/1999/xlink" x="0px" y="0px"
	 viewBox="0 0 200 200" style="enable-background:new 0 0 200 200;" xml:space="preserve">
<style type="text/css">
	.st0{fill:none;stroke:#6BBD78;stroke-width:2;stroke-miterlimit:10;}
	.st1{font-family:'PTSans-NarrowBold';}
	.st2{font-size:32px;}
	.st3{letter-spacing:2;}
	.st4{font-family:'AmalfiCoast';}
	.st5{font-size:19.2589px;}
	.st6{letter-spacing:1;}
	.st7{fill:none;stroke:#6BBD78;stroke-width:2;stroke-linecap:round;stroke-linejoin:round;stroke-miterlimit:10;}
</style>
<path class="st0" d="M18.73,99.68C18.73,50.7,58.43,11,107.41,11c48.98,0,88.68,39.7,88.68,88.68c0,48.98-39.7,88.68-88.68,88.68"/>
<text transform="matrix(1 0 0 1 4.2603 138.2773)" class="st1 st2 st3">CANNABIS</text>
<text transform="matrix(1 0 0 1 5.9985 163.8945)" class="st4 st5 st6">Para todos</text>
<g>
	<path class="st7" d="M115.53,60.91c0,16.06-8.12,29.09-8.12,29.09s-8.12-13.02-8.12-29.09c0-16.06,8.12-29.09,8.12-29.09
		S115.53,44.84,115.53,60.91z"/>
	<path class="st7" d="M106.61,88.99c-3.34-1.74-11.29-5.28-20.56-5.28c-12.29,0-22.25,6.21-22.25,6.21s9.96,6.21,22.25,6.21
		c9.22,0,17.12-3.5,20.5-5.24"/>
	<path class="st7" d="M95,95.46c-5.71,5.71-7.46,13.24-7.46,13.24s7.52-1.74,13.24-7.46c3.34-3.34,5.33-7.3,6.4-10.02"/>
	<path class="st7" d="M113.92,73.68c1.69-2.58,4-5.27,6.43-7.7c10.29-10.29,23.83-13.43,23.83-13.43s-3.14,13.54-13.43,23.83
		c-3.57,3.57-7.91,6.5-11.56,8.52"/>
	<path class="st7" d="M100.89,73.68c-1.69-2.58-4-5.27-6.43-7.7C84.17,55.69,70.63,52.55,70.63,52.55s3.14,13.54,13.43,23.83
		c3.57,3.57,7.91,6.5,11.56,8.52"/>
	<path class="st7" d="M108.26,88.96c3.38-1.75,11.29-5.24,20.5-5.24c12.29,0,22.25,6.21,22.25,6.21s-9.96,6.21-22.25,6.21
		c-8.85,0-17.14-3.66-20.73-5.47"/>
	<path class="st7" d="M119.81,95.46c5.71,5.71,7.46,13.24,7.46,13.24s-7.52-1.74-13.24-7.46c-3.34-3.34-5.33-7.3-6.4-10.02"/>
	<line class="st7" x1="107.18" y1="91.22" x2="107.18" y2="106.28"/>
</g>
</svg>
